<svg xmlns="http://www.w3.org/2000/svg" xmlns:xlink="http://www.w3.org/1999/xlink" width="600" height="600" viewBox="0 0 600 600">
  <defs>
    <clipPath id="clip-pndov2">
      <rect width="600" height="600"/>
    </clipPath>
  </defs>
  <g id="pndov2" clip-path="url(#clip-pndov2)">
    <g id="Group_6" data-name="Group 6" transform="translate(0 123.204)">
      <g id="Path_13" data-name="Path 13" transform="translate(-1304.402 450.781)" fill="#fff" stroke-linecap="round" stroke-linejoin="round">
        <path d="M 1553.744750976563 -57.17589569091797 C 1553.7412109375 -57.17589569091797 1553.739013671875 -57.17589569091797 1553.735473632813 -57.17589569091797 C 1529.776611328125 -57.17632293701172 1512.473022460938 -58.85982513427734 1497.629760742188 -62.63446807861328 C 1489.809326171875 -64.62318420410156 1482.618286132813 -67.21296691894531 1475.645751953125 -70.55175018310547 C 1468.794067382813 -73.83261108398438 1462.130126953125 -77.84967803955078 1455.272827148438 -82.83246612548828 C 1451.352416992188 -85.68125152587891 1447.539184570313 -88.38339233398438 1443.8515625 -90.99653625488281 C 1428.127685546875 -102.1386795043945 1414.548217773438 -111.7613220214844 1402.562866210938 -125.6055374145508 C 1396.207153320313 -132.9470367431641 1390.730834960938 -140.9916076660156 1385.8212890625 -150.198974609375 C 1380.472900390625 -160.2290344238281 1375.803466796875 -171.6030426025391 1371.546142578125 -184.9709625244141 C 1352.139404296875 -245.9056854248047 1361.216552734375 -276.5906066894531 1376.255004882813 -327.4275512695313 L 1376.771484375 -329.1738891601563 C 1379.866333007813 -339.6393127441406 1383.897338867188 -349.6453857421875 1388.75244140625 -358.9141845703125 C 1392.91650390625 -366.8636779785156 1397.81396484375 -374.5083312988281 1403.308715820313 -381.6356811523438 C 1413.351806640625 -394.6628112792969 1423.533813476563 -403.6786193847656 1430.968383789063 -410.2616882324219 C 1433.442993164063 -412.452880859375 1435.580200195313 -414.3453369140625 1437.278442382813 -416.0035400390625 C 1440.504272460938 -419.1535339355469 1445.710205078125 -422.6564636230469 1452.333618164063 -426.1336669921875 C 1459.495727539063 -429.8937377929688 1467.9521484375 -433.4703979492188 1477.4677734375 -436.7643127441406 C 1493.19140625 -442.2072448730469 1519.05419921875 -449.31640625 1552.970581054688 -452.2744750976563 C 1556.821899414063 -452.6103820800781 1561.037475585938 -452.7806701660156 1565.50048828125 -452.7806701660156 C 1573.471923828125 -452.7806701660156 1582.402587890625 -452.2418212890625 1592.04443359375 -451.178955078125 C 1601.58740234375 -450.1271057128906 1611.863403320313 -448.5581665039063 1622.587036132813 -446.5158996582031 C 1633.343139648438 -444.4674682617188 1644.585083007813 -441.9358825683594 1656.00048828125 -438.9915466308594 C 1667.59130859375 -436.0020446777344 1679.413940429688 -432.5730285644531 1691.14013671875 -428.7998352050781 C 1715.849975585938 -420.8486938476563 1739.6875 -411.5553283691406 1761.990478515625 -401.1778869628906 C 1786.066284179688 -389.9755249023438 1807.572387695313 -377.8543090820313 1825.91162109375 -365.1508178710938 C 1858.331420898438 -342.6941223144531 1879.104736328125 -315.5355529785156 1887.65478515625 -284.4295959472656 C 1889.274047851563 -278.5381164550781 1890.463134765625 -272.4380493164063 1891.188720703125 -266.2989807128906 C 1891.80615234375 -261.0747375488281 1892.103393554688 -255.6848907470703 1892.072387695313 -250.2792510986328 C 1892.015991210938 -240.4561767578125 1890.906127929688 -232.4341125488281 1890.171752929688 -227.1256866455078 C 1889.93505859375 -225.4149017333984 1889.730712890625 -223.9373931884766 1889.622192382813 -222.8249664306641 C 1889.21142578125 -218.6160430908203 1888.288330078125 -211.8267517089844 1886.222900390625 -203.3839721679688 C 1883.63427734375 -192.8020324707031 1879.942993164063 -182.3939666748047 1875.251586914063 -172.4486846923828 C 1869.150512695313 -159.5150451660156 1861.383544921875 -147.4543914794922 1852.166625976563 -136.6019744873047 C 1846.844848632813 -130.3358306884766 1840.958129882813 -124.3846130371094 1834.669799804688 -118.9136810302734 C 1827.847290039063 -112.9780349731445 1820.376220703125 -107.4548950195313 1812.464111328125 -102.4976119995117 C 1798.210083007813 -93.56674957275391 1784.929077148438 -86.58582305908203 1771.862548828125 -81.15589904785156 C 1759.532470703125 -76.03203582763672 1747.076782226563 -72.16960906982422 1733.783447265625 -69.34782409667969 C 1708.28173828125 -63.93446731567383 1681.152709960938 -62.63218307495117 1646.806030273438 -60.98346710205078 C 1637.451904296875 -60.53446578979492 1627.779418945313 -60.07011032104492 1617.31640625 -59.48818206787109 C 1595.72314453125 -58.28725814819336 1573.075805664063 -57.17589569091797 1553.744750976563 -57.17589569091797 Z" stroke="none"/>
        <path d="M 1553.735473632813 -59.17587280273438 C 1571.458862304688 -59.1755485534668 1592.193481445313 -60.09400939941406 1617.205322265625 -61.48511123657227 C 1705.943481445313 -66.42060852050781 1746.1328125 -63.29817962646484 1811.402221679688 -104.1923980712891 C 1876.671630859375 -145.0865325927734 1886.164306640625 -207.9815368652344 1887.631591796875 -223.0191040039063 C 1889.098388671875 -238.0567474365234 1906.0576171875 -307.2017517089844 1824.772827148438 -363.5067443847656 C 1748.732421875 -416.1793518066406 1629.249877929688 -450.7807006835938 1565.50048828125 -450.7807006835938 C 1561.104125976563 -450.7807006835938 1556.978149414063 -450.6164245605469 1553.144409179688 -450.2820434570313 C 1493.719116210938 -445.09912109375 1450.666259765625 -426.2810363769531 1438.675659179688 -414.5726013183594 C 1426.684814453125 -402.8641052246094 1393.99951171875 -380.3791809082031 1378.689453125 -328.6067504882813 C 1363.379150390625 -276.8343200683594 1354.011840820313 -246.6169738769531 1373.451782226563 -185.5778961181641 C 1392.891357421875 -124.5387496948242 1419.447875976563 -111.3371810913086 1456.448608398438 -84.45039367675781 C 1483.020629882813 -65.14187622070313 1508.578735351563 -59.17670059204102 1553.735473632813 -59.17587280273438 M 1553.745849609375 -55.17589569091797 L 1553.745849609375 -59.17589569091797 L 1553.741943359375 -55.17589569091797 L 1553.7353515625 -55.17589569091797 C 1529.603515625 -55.17632293701172 1512.147827148438 -56.87882232666016 1497.136962890625 -60.69610977172852 C 1489.187133789063 -62.71775436401367 1481.874755859375 -65.35153961181641 1474.781982421875 -68.74789428710938 C 1467.819702148438 -72.08175659179688 1461.0537109375 -76.15960693359375 1454.097290039063 -81.21446990966797 C 1450.186401367188 -84.05632781982422 1446.378051757813 -86.75496673583984 1442.695190429688 -89.36468505859375 C 1426.865478515625 -100.5818939208984 1413.194580078125 -110.2693252563477 1401.05078125 -124.2964706420898 C 1394.596069335938 -131.7522583007813 1389.037109375 -139.9172515869141 1384.056396484375 -149.2579650878906 C 1378.650512695313 -159.3961029052734 1373.934936523438 -170.87939453125 1369.640502929688 -184.3640441894531 C 1364.858154296875 -199.3798217773438 1361.70703125 -212.8185424804688 1360.007080078125 -225.4481048583984 C 1358.409301757813 -237.3179016113281 1358.0771484375 -248.6691741943359 1358.99169921875 -260.1504821777344 C 1360.732421875 -282.0047607421875 1366.736206054688 -302.300048828125 1374.337158203125 -327.9948120117188 L 1374.853637695313 -329.7411193847656 C 1377.9853515625 -340.3309631347656 1382.0654296875 -350.4584655761719 1386.980712890625 -359.8421936035156 C 1391.198608398438 -367.8944091796875 1396.1591796875 -375.6376037597656 1401.724853515625 -382.8568115234375 C 1411.8837890625 -396.0342407226563 1422.14794921875 -405.1228942871094 1429.642456054688 -411.759033203125 C 1432.097534179688 -413.9328918457031 1434.2177734375 -415.8103332519531 1435.881225585938 -417.4345397949219 C 1439.243774414063 -420.7179565429688 1444.611328125 -424.3384094238281 1451.403930664063 -427.9044799804688 C 1458.654541015625 -431.7109680175781 1467.203491210938 -435.3277587890625 1476.8134765625 -438.6543273925781 C 1492.643920898438 -444.1341857910156 1518.676635742188 -451.2910461425781 1552.796752929688 -454.2669067382813 C 1556.705810546875 -454.6078186035156 1560.979858398438 -454.7806701660156 1565.50048828125 -454.7806701660156 C 1573.544799804688 -454.7806701660156 1582.549194335938 -454.2377624511719 1592.263549804688 -453.1669616699219 C 1601.858276367188 -452.1093139648438 1612.186401367188 -450.5326232910156 1622.961181640625 -448.4806213378906 C 1633.759155273438 -446.4241027832031 1645.043212890625 -443.8831787109375 1656.5 -440.9281921386719 C 1668.128662109375 -437.9288940429688 1679.989379882813 -434.4888916015625 1691.752685546875 -430.7036743164063 C 1716.541137695313 -422.7272644042969 1740.456420898438 -413.4034729003906 1762.834228515625 -402.9911804199219 C 1787.0126953125 -391.7410278320313 1808.6181640625 -379.5628967285156 1827.050537109375 -366.7948913574219 C 1904.127319335938 -313.4047546386719 1895.114501953125 -248.2591094970703 1892.15283203125 -226.8516082763672 C 1891.919189453125 -225.1621856689453 1891.71728515625 -223.7031097412109 1891.612670898438 -222.6308288574219 C 1891.195678710938 -218.3569641113281 1890.259155273438 -211.4661865234375 1888.165649414063 -202.9086761474609 C 1885.545288085938 -192.1968994140625 1881.808837890625 -181.6616058349609 1877.060424804688 -171.5953979492188 C 1870.88427734375 -158.5028228759766 1863.021728515625 -146.2936859130859 1853.691040039063 -135.3072509765625 C 1848.304443359375 -128.9647521972656 1842.346435546875 -122.941535949707 1835.982421875 -117.4048233032227 C 1829.08154296875 -111.4009704589844 1821.526123046875 -105.8151779174805 1813.526000976563 -100.8027496337891 C 1799.177124023438 -91.81253814697266 1785.799926757813 -84.78182220458984 1772.630004882813 -79.30903625488281 C 1760.184936523438 -74.13732147216797 1747.614013671875 -70.23903656005859 1734.19873046875 -67.39139556884766 C 1708.5390625 -61.94453811645508 1681.338745117188 -60.63882446289063 1646.901977539063 -58.98575210571289 C 1637.551635742188 -58.53689575195313 1627.8828125 -58.07282257080078 1617.427490234375 -57.49125289916992 C 1595.805053710938 -56.28875350952148 1573.124755859375 -55.17589569091797 1553.745849609375 -55.17589569091797 Z" stroke="none" fill="#000"/>
      </g>
      <path id="Path_14" data-name="Path 14" d="M1414.813-332.152c33.037-32.03,74.234-42.606,106.365-38.678s22.159,54.391,22.159,54.391-16.217,55.6-40.693,84.206-57.212,30.217-57.212,30.217-48.751-8.159-56.406-40.693S1381.776-300.122,1414.813-332.152Z" transform="translate(-1293.79 488.169)"/>
      <path id="Path_15" data-name="Path 15" d="M1584.664-362.439c13.937-8.4,33.206-17.224,65.538,0s55.033,28.9,71.451,63.854,16.985,55.3-5.778,75.952-67.759,10.606-74.361,9.139-50.638-19.614-60.207-57.487S1570.726-354.038,1584.664-362.439Z" transform="translate(-1204.442 487.836)"/>
      <path id="Path_16" data-name="Path 16" d="M1539.34-286.841s23.469-13.9,33.441-11.281,9.823,14.443,6.446,21.757S1547.8-240.1,1547.8-240.1s-30.339-16.266-39.2-30.77-5.318-23.822,3.747-27.247S1539.34-286.841,1539.34-286.841Z" transform="translate(-1237.818 522.632)"/>
      <path id="Path_17" data-name="Path 17" d="M1505.943-242.688s.046,15.551,11.892,17.381,35.493-10.062,35.493-10.062l-1.138-23.785h0l1.138,23.785s16.146,10.063,28.542,10.063,16.939-3.31,20.827-11.2-5.276-20.36-5.276-20.36" transform="translate(-1242.474 537.224)" fill="none" stroke="#000" stroke-linecap="round" stroke-linejoin="round" stroke-width="12"/>
      <path id="Path_18" data-name="Path 18" d="M1327.683-371.794s17.278-37.578,41.839-54.236,42.614-14.644,64.154-6.2c7.948,3.116,15.162,7.054,14.756,19.788,0,0-27.255,21.245-42.779,54.884-9.651,20.914-22.315,77.674-22.315,77.674a28.7,28.7,0,0,1-13.816-1.414c-20.223-7.283-31.38-16.426-41.839-39.05S1327.683-371.794,1327.683-371.794Z" transform="translate(-1323.035 456.529)"/>
      <path id="Path_19" data-name="Path 19" d="M1658.235-443.733s32.7-12.784,61.055,7.438,41.917,42.769,52.377,73.451-8.988,48.968-8.988,48.968a30.1,30.1,0,0,1-14,9.488s-14.644-31.823-43.775-53.442c-16.78-12.453-62.413-37.98-62.413-37.98a68.154,68.154,0,0,1-4.087-10.733C1630.574-435.055,1658.235-443.733,1658.235-443.733Z" transform="translate(-1174.757 452.227)"/>
      <path id="Path_20" data-name="Path 20" d="M1433.031-303.841s15.3-17.393,24.748-17.393,22.37,26.922,22.37,26.922" transform="translate(-1279.575 511.962)" fill="none" stroke="#fff" stroke-linecap="round" stroke-linejoin="round" stroke-width="12"/>
      <path id="Path_21" data-name="Path 21" d="M1610.166-297.411s10.414-23.4,22.933-23.4,28.8,28.464,28.8,28.464" transform="translate(-1187.432 512.16)" fill="none" stroke="#fff" stroke-linecap="round" stroke-linejoin="round" stroke-width="12"/>
      <path id="Path_22" data-name="Path 22" d="M1428.287-231.793c4.355,7.06,13.066,12.662,34.11,10.647s27.694-5.776,31.957-12.836,2.006-15.955-14.866-18.339-19.762-1.465-32.553,2.933S1423.932-238.854,1428.287-231.793Z" transform="translate(-1273.81 543.901)" fill="#f0b7cd"/>
      <path id="Path_23" data-name="Path 23" d="M1595.123-256.89c5-6.1,12.694-7.355,26.586-4.992s15.562,3.653,24.09,10.851,7.7,16.168,5.534,17.8-7.834,6.806-21.359,5.706-27.508-9.719-27.508-9.719S1590.126-250.792,1595.123-256.89Z" transform="translate(-1203.391 539.484)" fill="#f0b7cd"/>
    </g>
    <g id="Group_9" data-name="Group 9" transform="matrix(0.927, 0.375, -0.375, 0.927, 396.15, 99.312)">
      <path id="Path_24" data-name="Path 24" d="M.01,38.731c.5,20.135,5.8,39.887,22.869,46.484s55.27-21.651,55.27-21.651l7.3-31.315S49.725,2.688,33.568.2-.487,18.6.01,38.731Z" transform="translate(0 0)" fill="#c0efde"/>
      <path id="Path_25" data-name="Path 25" d="M3.236,30.324A154.612,154.612,0,0,1,31.626,8.1C48.835-2.413,70.49-2.986,82.584,8.1S92.775,48.373,92.775,48.373s-.717,22.84-14.915,34.552-43.442-1.989-43.442-1.989L0,56.653Z" transform="translate(106.095 6.764)" fill="#c0efde"/>
      <path id="Path_26" data-name="Path 26" d="M14.043,40.122c11.616,2.534,17.668-3.829,17.668-3.829S36.672,29.2,36.672,21.41a66.44,66.44,0,0,0-2.35-15.927A22,22,0,0,0,19.352,0c-9.573,0-10.7,2.089-10.7,2.089S2.446,9.073.64,16.971s.784,16.71.784,16.71S2.427,37.589,14.043,40.122Z" transform="translate(76.372 29.703)" fill="#ab8484"/>
    </g>
  </g>
</svg>
