<svg xmlns="http://www.w3.org/2000/svg" xmlns:xlink="http://www.w3.org/1999/xlink" width="1400" height="600" viewBox="0 0 1400 600">
  <defs>
    <clipPath id="clip-banner">
      <rect width="1400" height="600"/>
    </clipPath>
  </defs>
  <g id="banner" clip-path="url(#clip-banner)">
    <g id="Group_6" data-name="Group 6" transform="translate(0 164.844)">
      <path id="Path_13" data-name="Path 13" d="M1369.851-272.678c13.055,40.992,30.89,49.858,55.738,67.914s48.365,18.737,107.96,15.423,86.584-1.218,130.417-28.681,50.208-69.7,51.193-79.8,12.375-56.535-42.214-94.348-142.51-61.757-182.418-58.276-68.822,16.118-76.874,23.981-30,22.963-40.285,57.732S1356.8-313.67,1369.851-272.678Z" transform="translate(-1323.479 450.781)" fill="#fff"/>
      <path id="Path_14" data-name="Path 14" d="M1405.008-345.112c22.187-21.511,49.854-28.613,71.432-25.975s14.882,36.528,14.882,36.528-10.891,37.339-27.328,56.55a58.878,58.878,0,0,1-38.422,20.293s-32.74-5.479-37.88-27.328S1382.821-323.6,1405.008-345.112Z" transform="translate(-1323.732 449.889)"/>
      <path id="Path_15" data-name="Path 15" d="M1581.21-365.683c9.36-5.641,22.3-11.567,44.013,0s36.958,19.41,47.984,42.882,11.407,37.14-3.881,51.007-45.5,7.123-49.938,6.137-34.007-13.172-40.433-38.606S1571.85-360.042,1581.21-365.683Z" transform="translate(-1325.864 449.897)"/>
      <path id="Path_16" data-name="Path 16" d="M1527.561-290.716s15.761-9.335,22.458-7.576,6.6,9.7,4.329,14.611-21.1,24.352-21.1,24.352-20.374-10.924-26.327-20.665-3.571-16,2.517-18.3S1527.561-290.716,1527.561-290.716Z" transform="translate(-1325.068 449.066)"/>
      <path id="Path_17" data-name="Path 17" d="M1505.943-248.1s.031,10.444,7.986,11.672,23.836-6.758,23.836-6.758L1537-259.155h0l.764,15.973s10.843,6.758,19.168,6.758,11.376-2.223,13.987-7.521-3.544-13.673-3.544-13.673" transform="translate(-1329.005 445.898)" fill="none" stroke="#000" stroke-linecap="round" stroke-linejoin="round" stroke-width="12"/>
      <path id="Path_18" data-name="Path 18" d="M1326.157-393.738s11.6-25.236,28.1-36.424,28.618-9.834,43.084-4.163c5.338,2.093,10.182,4.737,9.91,13.289,0,0-18.3,14.267-28.729,36.858-6.481,14.045-14.986,52.164-14.986,52.164a19.273,19.273,0,0,1-9.278-.95c-13.581-4.891-21.074-11.031-28.1-26.225S1326.157-393.738,1326.157-393.738Z" transform="translate(-1323.035 450.644)"/>
      <path id="Path_19" data-name="Path 19" d="M1651.262-445.042s21.958-8.586,41,5,28.151,28.723,35.175,49.328-6.036,32.885-6.036,32.885a20.214,20.214,0,0,1-9.4,6.372s-9.834-21.371-29.4-35.89c-11.269-8.363-41.914-25.506-41.914-25.506a45.756,45.756,0,0,1-2.745-7.208C1632.687-439.214,1651.262-445.042,1651.262-445.042Z" transform="translate(-1326.573 450.746)"/>
      <path id="Path_20" data-name="Path 20" d="M1433.031-309.553s10.273-11.68,16.62-11.68,15.023,18.08,15.023,18.08" transform="translate(-1329.974 449.321)" fill="none" stroke="#fff" stroke-linecap="round" stroke-linejoin="round" stroke-width="12"/>
      <path id="Path_21" data-name="Path 21" d="M1610.166-305.1s6.993-15.716,15.4-15.716,19.339,19.115,19.339,19.115" transform="translate(-1326.27 449.316)" fill="none" stroke="#fff" stroke-linecap="round" stroke-linejoin="round" stroke-width="12"/>
      <path id="Path_22" data-name="Path 22" d="M1427.952-238.956c2.925,4.742,8.775,8.5,22.907,7.15s18.6-3.879,21.462-8.62,1.347-10.715-9.984-12.316-13.272-.984-21.862,1.97S1425.027-243.7,1427.952-238.956Z" transform="translate(-1324.209 448.559)" fill="#f0b7cd"/>
      <path id="Path_23" data-name="Path 23" d="M1594.732-258.9c3.356-4.1,8.525-4.94,17.854-3.352s10.451,2.453,16.178,7.287,5.174,10.858,3.717,11.951-5.261,4.571-14.344,3.832-18.474-6.527-18.474-6.527S1591.376-254.8,1594.732-258.9Z" transform="translate(-1331.656 448.679)" fill="#f0b7cd"/>
    </g>
    <g id="Group_9" data-name="Group 9" transform="matrix(0.927, 0.375, -0.375, 0.927, 252.875, 138.717)">
      <path id="Path_24" data-name="Path 24" d="M.007,26.011C.341,39.533,3.9,52.8,15.365,57.228s37.118-14.54,37.118-14.54l4.9-21.03S33.394,1.805,22.544.136-.327,12.489.007,26.011Z" transform="translate(0 0)" fill="#c0efde"/>
      <path id="Path_25" data-name="Path 25" d="M2.173,20.365A103.833,103.833,0,0,1,21.239,5.442c11.557-7.063,26.1-7.448,34.222,0s6.844,27.044,6.844,27.044-.481,15.339-10.016,23.2-29.174-1.335-29.174-1.335L0,38.046Z" transform="translate(71.251 4.543)" fill="#c0efde"/>
      <path id="Path_26" data-name="Path 26" d="M9.431,26.945c7.8,1.7,11.865-2.572,11.865-2.572s3.332-4.762,3.332-9.995a44.619,44.619,0,0,0-1.578-10.7A14.777,14.777,0,0,0,13,0C6.567,0,5.807,1.4,5.807,1.4S1.642,6.093.43,11.4.956,22.62.956,22.62,1.63,25.244,9.431,26.945Z" transform="translate(51.289 19.947)" fill="#ab8484"/>
    </g>
    <text id="p_a_ndo.me" data-name="p(a)ndo.me" transform="translate(402.943 377.283)" fill="#ff918a" font-size="209" font-family="ArchitectsDaughter-Regular, Architects Daughter"><tspan x="0" y="0">p(a)ndo.me</tspan></text>
  </g>
</svg>
